<svg xmlns="http://www.w3.org/2000/svg" width="1200" height="630" viewBox="0 0 1200 630" role="img" aria-labelledby="title desc">
  <title id="title">Samuel O. Costa</title>
  <desc id="desc">Do hardware ao software, um logbook de projetos e experimentos.</desc>
  <defs>
    <linearGradient id="bg" x1="0" y1="0" x2="1" y2="1">
      <stop offset="0%" stop-color="#0f172a"/>
      <stop offset="100%" stop-color="#020617"/>
    </linearGradient>
    <linearGradient id="accent" x1="0" y1="0" x2="1" y2="0">
      <stop offset="0%" stop-color="#67e8f9"/>
      <stop offset="100%" stop-color="#34d399"/>
    </linearGradient>
  </defs>

  <rect width="1200" height="630" fill="url(#bg)"/>
  <g opacity="0.15" fill="none" stroke="#94a3b8" stroke-width="1">
    <path d="M0 80H1200"/>
    <path d="M0 160H1200"/>
    <path d="M0 240H1200"/>
    <path d="M0 320H1200"/>
    <path d="M0 400H1200"/>
    <path d="M0 480H1200"/>
    <path d="M0 560H1200"/>
    <path d="M120 0V630"/>
    <path d="M240 0V630"/>
    <path d="M360 0V630"/>
    <path d="M480 0V630"/>
    <path d="M600 0V630"/>
    <path d="M720 0V630"/>
    <path d="M840 0V630"/>
    <path d="M960 0V630"/>
    <path d="M1080 0V630"/>
  </g>

  <rect x="96" y="104" width="1008" height="422" rx="28" fill="#0b1222" stroke="#1e293b"/>
  <rect x="96" y="104" width="1008" height="6" fill="url(#accent)"/>

  <text x="152" y="224" fill="#e2e8f0" font-family="'Fira Code', monospace" font-size="25" letter-spacing="2">SYSTEM.IDENTITY</text>
  <text x="152" y="296" fill="#f8fafc" font-family="'Fira Code', monospace" font-size="58" font-weight="700">Ola, eu sou</text>
  <text x="152" y="362" fill="#67e8f9" font-family="'Fira Code', monospace" font-size="62" font-weight="700">Samuel O. Costa</text>
  <text x="152" y="418" fill="#94a3b8" font-family="'Fira Code', monospace" font-size="27">Do hardware ao software, este é meu logbook de projetos.</text>

  <rect x="152" y="448" width="326" height="52" rx="8" fill="#0f172a" stroke="#334155"/>
  <text x="179" y="482" fill="#67e8f9" font-family="'Fira Code', monospace" font-size="24">samuelcosta.me</text>
</svg>
